105 1136 1 0
-0 body $-1 $1 $-1 $-1 #
-1 lump $-1 $-1 $2 $0 #
-2 shell $-1 $-1 $-1 $5 $1 #
-17 plane-surface $-1   0   0 0.000000  0  0  1 1 0  0 0 #
-11 plane-surface $-1   0   0 0.062500  0  0  1 1 0  0 0 #
-25 plane-surface $-1   0 -0.100000   0  0  1  0 0 0  1 0 #
-48 plane-surface $-1   0 2.195000   0  0 -1  0 0 0 -1 0 #
-35 plane-surface $-1 0.500000   0   0  1  0  0 0 0 -1 0 #
-70 plane-surface $-1 7.008000   0   0 -1  0  0 0 0  1 0 #
-5 face $8 $9 $18 $2 $-1 $11 forward single #
-9 face $14 $15 $26 $2 $-1 $17 reversed single #
-15 face $22 $23 $24 $2 $-1 $25 reversed single #
-33 face $45 $46 $47 $2 $-1 $48 reversed single #
-23 face $32 $33 $34 $2 $-1 $35 reversed single #
-8 feature-ospam-attrib $-1 $-1 $-1 $5 0 #
-14 feature-ospam-attrib $-1 $-1 $-1 $9 0 #
-22 feature-ospam-attrib $-1 $-1 $-1 $15 0 #
-45 feature-ospam-attrib $-1 $-1 $-1 $33 0 #
-32 feature-ospam-attrib $-1 $-1 $-1 $23 0 #
-69 feature-ospam-attrib $-1 $-1 $-1 $46 0 #
-94 point  $-1 7.008000 2.195000 0.062500 #
-105 point $-1 0.500000 2.195000 0.062500 #
-109 point $-1 0.500000 2.195000 0.000000 #
-93 point  $-1 7.008000 -0.100000 0.062500 #
-99 point  $-1 0.500000 -0.100000 0.062500 #
-102 point $-1 7.008000 2.195000 0.000000 #
-103 point $-1 7.008000 -0.100000 0.000000 #
-100 point $-1 0.500000 -0.100000 0.000000 #
-66 vertex $-1 $41 $94 #
-88 vertex $-1 $60 $105 #
-96 vertex $-1 $83 $109 #
-65 vertex $-1 $41 $93 #
-78 vertex $-1 $87 $99 #
-84 vertex $-1 $57 $102 #
-85 vertex $-1 $91 $103 #
-79 vertex $-1 $95 $100 #
-90 straight-curve  $-1 0.500000 -0.100000 0.062500  1  0  0 #
-101 straight-curve $-1 0.500000 2.195000 0.000000  1  0  0 #
-89 straight-curve  $-1 0.500000 2.195000 0.062500 -1  0  0 #
-98 straight-curve  $-1 0.500000 -0.100000 0.000000 -1  0  0 #
-67 straight-curve  $-1 7.008000 -0.100000 0.062500  0  1  0 #
-108 straight-curve $-1 0.500000 -0.100000 0.000000  0  1  0 #
-104 straight-curve $-1 0.500000 -0.100000 0.062500  0 -1  0 #
-86 straight-curve  $-1 7.008000 -0.100000 0.000000  0 -1  0 #
-107 straight-curve $-1 7.008000 2.195000 0.000000  0  0 -1 #
-97 straight-curve  $-1 0.500000 2.195000 0.000000  0  0 -1 #
-106 straight-curve $-1 7.008000 -0.100000 0.000000  0  0 -1 #
-80 straight-curve  $-1 0.500000 -0.100000 0.000000  0  0 -1 #
-61 edge $-1 $78 $65 $51 $90 0 #
-83 edge $-1 $96 $84 $82 $101 0 #
-60 edge $-1 $66 $88 $59 $89 0 #
-77 edge $-1 $85 $79 $50 $98 0 #
-41 edge $-1 $65 $66 $40 $67 0 #
-95 edge $-1 $79 $96 $72 $108 0 #
-87 edge $-1 $88 $78 $73 $104 0 #
-57 edge $-1 $84 $85 $56 $86 0 #
-92 edge $-1 $66 $84 $63 $107 0 #
-75 edge $-1 $88 $96 $74 $97 0 #
-91 edge $-1 $65 $85 $62 $106 0 #
-53 edge $-1 $78 $79 $52 $80 0 #
-39 coedge $-1 $28 $58 $51 $61 0 $18 $-1 #
-58 coedge $-1 $39 $38 $73 $87 0 $18 $-1 #
-38 coedge $-1 $58 $28 $59 $60 0 $18 $-1 #
-28 coedge $-1 $38 $39 $40 $41 0 $18 $-1 #
-51 coedge $-1 $36 $76 $39 $61 1 $24 $-1 #
-76 coedge $-1 $51 $50 $62 $91 1 $24 $-1 #
-50 coedge $-1 $76 $36 $54 $77 1 $24 $-1 #
-36 coedge $-1 $50 $51 $52 $53 0 $24 $-1 #
-55 coedge $-1 $37 $81 $82 $83 0 $26 $-1 #
-81 coedge $-1 $55 $54 $72 $95 0 $26 $-1 #
-54 coedge $-1 $81 $37 $50 $77 0 $26 $-1 #
-37 coedge $-1 $54 $55 $56 $57 0 $26 $-1 #
-63 coedge $-1 $40 $56 $71 $92 1 $64 $-1 #
-56 coedge $-1 $63 $62 $37 $57 1 $64 $-1 #
-62 coedge $-1 $56 $40 $76 $91 0 $64 $-1 #
-40 coedge $-1 $62 $63 $28 $41 1 $64 $-1 #
-73 coedge $-1 $49 $52 $58 $87 1 $34 $-1 #
-52 coedge $-1 $73 $72 $36 $53 1 $34 $-1 #
-72 coedge $-1 $52 $49 $81 $95 1 $34 $-1 #
-49 coedge $-1 $72 $73 $74 $75 0 $34 $-1 #
-74 coedge $-1 $59 $82 $49 $75 1 $47 $-1 #
-82 coedge $-1 $74 $71 $55 $83 1 $47 $-1 #
-71 coedge $-1 $82 $59 $63 $92 0 $47 $-1 #
-59 coedge $-1 $71 $74 $38 $60 1 $47 $-1 #
-24 loop $-1 $-1 $36 $15 #
-34 loop $-1 $-1 $49 $23 #
-64 loop $-1 $-1 $62 $46 #
-47 loop $-1 $-1 $71 $33 #
-110 cone-surface $-1 2.506772 0.157677 0.000000 0 0 -1 0.011811 0 0 1 0 1 0 #
-111 face $112 $-1 $125 $2 $-1 $110 reversed single #
-112 feature-ospam-attrib $-1 $-1 $-1 $111 1 #
-116 ellipse-curve $-1 2.506772 0.157677 0.000000 0 0  1 0.011811 0 0 1 #
-113 ellipse-curve $-1 2.506772 0.157677 0.062500 0 0 -1 0.011811 0 0 1 #
-117 edge $-1 $124 $124 $120 $116 0 #
-114 edge $-1 $122 $122 $119 $113 0 #
-121 point $-1 2.518583 0.157677 0.062500 #
-123 point $-1 2.518583 0.157677 0.000000 #
-122 vertex $-1 $114 $121 #
-124 vertex $-1 $117 $123 #
-115 coedge $-1 $115 $115 $119 $114 0 $127 $-1 #
-118 coedge $-1 $118 $118 $120 $117 0 $128 $-1 #
-127 loop $-1 $-1 $115 $5 #
-128 loop $-1 $-1 $118 $9 #
-119 coedge $-1 $119 $119 $115 $114 1 $125 $-1 #
-120 coedge $-1 $120 $120 $118 $117 1 $126 $-1 #
-125 loop $-1 $126 $119 $111 #
-126 loop $-1 $-1 $120 $111 #
-129 cone-surface $-1 2.353228 0.157677 0.000000 0 0 -1 0.011811 0 0 1 0 1 0 #
-130 face $131 $111 $144 $2 $-1 $129 reversed single #
-131 feature-ospam-attrib $-1 $-1 $-1 $130 1 #
-135 ellipse-curve $-1 2.353228 0.157677 0.000000 0 0  1 0.011811 0 0 1 #
-132 ellipse-curve $-1 2.353228 0.157677 0.062500 0 0 -1 0.011811 0 0 1 #
-136 edge $-1 $143 $143 $139 $135 0 #
-133 edge $-1 $141 $141 $138 $132 0 #
-140 point $-1 2.365039 0.157677 0.062500 #
-142 point $-1 2.365039 0.157677 0.000000 #
-141 vertex $-1 $133 $140 #
-143 vertex $-1 $136 $142 #
-134 coedge $-1 $134 $134 $138 $133 0 $146 $-1 #
-137 coedge $-1 $137 $137 $139 $136 0 $147 $-1 #
-146 loop $-1 $127 $134 $5 #
-147 loop $-1 $128 $137 $9 #
-138 coedge $-1 $138 $138 $134 $133 1 $144 $-1 #
-139 coedge $-1 $139 $139 $137 $136 1 $145 $-1 #
-144 loop $-1 $145 $138 $130 #
-145 loop $-1 $-1 $139 $130 #
-148 cone-surface $-1 2.539252 0.075000 0.000000 0 0 -1 0.009843 0 0 1 0 1 0 #
-149 face $150 $130 $163 $2 $-1 $148 reversed single #
-150 feature-ospam-attrib $-1 $-1 $-1 $149 1 #
-154 ellipse-curve $-1 2.539252 0.075000 0.000000 0 0  1 0.009843 0 0 1 #
-151 ellipse-curve $-1 2.539252 0.075000 0.062500 0 0 -1 0.009843 0 0 1 #
-155 edge $-1 $162 $162 $158 $154 0 #
-152 edge $-1 $160 $160 $157 $151 0 #
-159 point $-1 2.549094 0.075000 0.062500 #
-161 point $-1 2.549094 0.075000 0.000000 #
-160 vertex $-1 $152 $159 #
-162 vertex $-1 $155 $161 #
-153 coedge $-1 $153 $153 $157 $152 0 $165 $-1 #
-156 coedge $-1 $156 $156 $158 $155 0 $166 $-1 #
-165 loop $-1 $146 $153 $5 #
-166 loop $-1 $147 $156 $9 #
-157 coedge $-1 $157 $157 $153 $152 1 $163 $-1 #
-158 coedge $-1 $158 $158 $156 $155 1 $164 $-1 #
-163 loop $-1 $164 $157 $149 #
-164 loop $-1 $-1 $158 $149 #
-167 cone-surface $-1 2.320748 0.075000 0.000000 0 0 -1 0.009843 0 0 1 0 1 0 #
-168 face $169 $149 $182 $2 $-1 $167 reversed single #
-169 feature-ospam-attrib $-1 $-1 $-1 $168 1 #
-173 ellipse-curve $-1 2.320748 0.075000 0.000000 0 0  1 0.009843 0 0 1 #
-170 ellipse-curve $-1 2.320748 0.075000 0.062500 0 0 -1 0.009843 0 0 1 #
-174 edge $-1 $181 $181 $177 $173 0 #
-171 edge $-1 $179 $179 $176 $170 0 #
-178 point $-1 2.330591 0.075000 0.062500 #
-180 point $-1 2.330591 0.075000 0.000000 #
-179 vertex $-1 $171 $178 #
-181 vertex $-1 $174 $180 #
-172 coedge $-1 $172 $172 $176 $171 0 $184 $-1 #
-175 coedge $-1 $175 $175 $177 $174 0 $185 $-1 #
-184 loop $-1 $165 $172 $5 #
-185 loop $-1 $166 $175 $9 #
-176 coedge $-1 $176 $176 $172 $171 1 $182 $-1 #
-177 coedge $-1 $177 $177 $175 $174 1 $183 $-1 #
-182 loop $-1 $183 $176 $168 #
-183 loop $-1 $-1 $177 $168 #
-186 cone-surface $-1 1.784000 0.352000 0.000000 0 0 -1 0.005906 0 0 1 0 1 0 #
-187 face $188 $168 $201 $2 $-1 $186 reversed single #
-188 feature-ospam-attrib $-1 $-1 $-1 $187 1 #
-192 ellipse-curve $-1 1.784000 0.352000 0.000000 0 0  1 0.005906 0 0 1 #
-189 ellipse-curve $-1 1.784000 0.352000 0.062500 0 0 -1 0.005906 0 0 1 #
-193 edge $-1 $200 $200 $196 $192 0 #
-190 edge $-1 $198 $198 $195 $189 0 #
-197 point $-1 1.789906 0.352000 0.062500 #
-199 point $-1 1.789906 0.352000 0.000000 #
-198 vertex $-1 $190 $197 #
-200 vertex $-1 $193 $199 #
-191 coedge $-1 $191 $191 $195 $190 0 $203 $-1 #
-194 coedge $-1 $194 $194 $196 $193 0 $204 $-1 #
-203 loop $-1 $184 $191 $5 #
-204 loop $-1 $185 $194 $9 #
-195 coedge $-1 $195 $195 $191 $190 1 $201 $-1 #
-196 coedge $-1 $196 $196 $194 $193 1 $202 $-1 #
-201 loop $-1 $202 $195 $187 #
-202 loop $-1 $-1 $196 $187 #
-205 cone-surface $-1 2.432000 0.260000 0.000000 0 0 -1 0.005906 0 0 1 0 1 0 #
-206 face $207 $187 $220 $2 $-1 $205 reversed single #
-207 feature-ospam-attrib $-1 $-1 $-1 $206 1 #
-211 ellipse-curve $-1 2.432000 0.260000 0.000000 0 0  1 0.005906 0 0 1 #
-208 ellipse-curve $-1 2.432000 0.260000 0.062500 0 0 -1 0.005906 0 0 1 #
-212 edge $-1 $219 $219 $215 $211 0 #
-209 edge $-1 $217 $217 $214 $208 0 #
-216 point $-1 2.437906 0.260000 0.062500 #
-218 point $-1 2.437906 0.260000 0.000000 #
-217 vertex $-1 $209 $216 #
-219 vertex $-1 $212 $218 #
-210 coedge $-1 $210 $210 $214 $209 0 $222 $-1 #
-213 coedge $-1 $213 $213 $215 $212 0 $223 $-1 #
-222 loop $-1 $203 $210 $5 #
-223 loop $-1 $204 $213 $9 #
-214 coedge $-1 $214 $214 $210 $209 1 $220 $-1 #
-215 coedge $-1 $215 $215 $213 $212 1 $221 $-1 #
-220 loop $-1 $221 $214 $206 #
-221 loop $-1 $-1 $215 $206 #
-224 cone-surface $-1 2.484000 0.254000 0.000000 0 0 -1 0.005906 0 0 1 0 1 0 #
-225 face $226 $206 $239 $2 $-1 $224 reversed single #
-226 feature-ospam-attrib $-1 $-1 $-1 $225 1 #
-230 ellipse-curve $-1 2.484000 0.254000 0.000000 0 0  1 0.005906 0 0 1 #
-227 ellipse-curve $-1 2.484000 0.254000 0.062500 0 0 -1 0.005906 0 0 1 #
-231 edge $-1 $238 $238 $234 $230 0 #
-228 edge $-1 $236 $236 $233 $227 0 #
-235 point $-1 2.489906 0.254000 0.062500 #
-237 point $-1 2.489906 0.254000 0.000000 #
-236 vertex $-1 $228 $235 #
-238 vertex $-1 $231 $237 #
-229 coedge $-1 $229 $229 $233 $228 0 $241 $-1 #
-232 coedge $-1 $232 $232 $234 $231 0 $242 $-1 #
-241 loop $-1 $222 $229 $5 #
-242 loop $-1 $223 $232 $9 #
-233 coedge $-1 $233 $233 $229 $228 1 $239 $-1 #
-234 coedge $-1 $234 $234 $232 $231 1 $240 $-1 #
-239 loop $-1 $240 $233 $225 #
-240 loop $-1 $-1 $234 $225 #
-243 cone-surface $-1 2.140000 0.419000 0.000000 0 0 -1 0.006000 0 0 1 0 1 0 #
-244 face $245 $225 $258 $2 $-1 $243 reversed single #
-245 feature-ospam-attrib $-1 $-1 $-1 $244 1 #
-249 ellipse-curve $-1 2.140000 0.419000 0.000000 0 0  1 0.006000 0 0 1 #
-246 ellipse-curve $-1 2.140000 0.419000 0.062500 0 0 -1 0.006000 0 0 1 #
-250 edge $-1 $257 $257 $253 $249 0 #
-247 edge $-1 $255 $255 $252 $246 0 #
-254 point $-1 2.146000 0.419000 0.062500 #
-256 point $-1 2.146000 0.419000 0.000000 #
-255 vertex $-1 $247 $254 #
-257 vertex $-1 $250 $256 #
-248 coedge $-1 $248 $248 $252 $247 0 $260 $-1 #
-251 coedge $-1 $251 $251 $253 $250 0 $261 $-1 #
-260 loop $-1 $241 $248 $5 #
-261 loop $-1 $242 $251 $9 #
-252 coedge $-1 $252 $252 $248 $247 1 $258 $-1 #
-253 coedge $-1 $253 $253 $251 $250 1 $259 $-1 #
-258 loop $-1 $259 $252 $244 #
-259 loop $-1 $-1 $253 $244 #
-262 cone-surface $-1 2.083000 0.420000 0.000000 0 0 -1 0.006000 0 0 1 0 1 0 #
-263 face $264 $244 $277 $2 $-1 $262 reversed single #
-264 feature-ospam-attrib $-1 $-1 $-1 $263 1 #
-268 ellipse-curve $-1 2.083000 0.420000 0.000000 0 0  1 0.006000 0 0 1 #
-265 ellipse-curve $-1 2.083000 0.420000 0.062500 0 0 -1 0.006000 0 0 1 #
-269 edge $-1 $276 $276 $272 $268 0 #
-266 edge $-1 $274 $274 $271 $265 0 #
-273 point $-1 2.089000 0.420000 0.062500 #
-275 point $-1 2.089000 0.420000 0.000000 #
-274 vertex $-1 $266 $273 #
-276 vertex $-1 $269 $275 #
-267 coedge $-1 $267 $267 $271 $266 0 $279 $-1 #
-270 coedge $-1 $270 $270 $272 $269 0 $280 $-1 #
-279 loop $-1 $260 $267 $5 #
-280 loop $-1 $261 $270 $9 #
-271 coedge $-1 $271 $271 $267 $266 1 $277 $-1 #
-272 coedge $-1 $272 $272 $270 $269 1 $278 $-1 #
-277 loop $-1 $278 $271 $263 #
-278 loop $-1 $-1 $272 $263 #
-281 cone-surface $-1 2.100000 0.563000 0.000000 0 0 -1 0.006000 0 0 1 0 1 0 #
-282 face $283 $263 $296 $2 $-1 $281 reversed single #
-283 feature-ospam-attrib $-1 $-1 $-1 $282 1 #
-287 ellipse-curve $-1 2.100000 0.563000 0.000000 0 0  1 0.006000 0 0 1 #
-284 ellipse-curve $-1 2.100000 0.563000 0.062500 0 0 -1 0.006000 0 0 1 #
-288 edge $-1 $295 $295 $291 $287 0 #
-285 edge $-1 $293 $293 $290 $284 0 #
-292 point $-1 2.106000 0.563000 0.062500 #
-294 point $-1 2.106000 0.563000 0.000000 #
-293 vertex $-1 $285 $292 #
-295 vertex $-1 $288 $294 #
-286 coedge $-1 $286 $286 $290 $285 0 $298 $-1 #
-289 coedge $-1 $289 $289 $291 $288 0 $299 $-1 #
-298 loop $-1 $279 $286 $5 #
-299 loop $-1 $280 $289 $9 #
-290 coedge $-1 $290 $290 $286 $285 1 $296 $-1 #
-291 coedge $-1 $291 $291 $289 $288 1 $297 $-1 #
-296 loop $-1 $297 $290 $282 #
-297 loop $-1 $-1 $291 $282 #
-300 cone-surface $-1 2.407000 0.340000 0.000000 0 0 -1 0.006000 0 0 1 0 1 0 #
-301 face $302 $282 $315 $2 $-1 $300 reversed single #
-302 feature-ospam-attrib $-1 $-1 $-1 $301 1 #
-306 ellipse-curve $-1 2.407000 0.340000 0.000000 0 0  1 0.006000 0 0 1 #
-303 ellipse-curve $-1 2.407000 0.340000 0.062500 0 0 -1 0.006000 0 0 1 #
-307 edge $-1 $314 $314 $310 $306 0 #
-304 edge $-1 $312 $312 $309 $303 0 #
-311 point $-1 2.413000 0.340000 0.062500 #
-313 point $-1 2.413000 0.340000 0.000000 #
-312 vertex $-1 $304 $311 #
-314 vertex $-1 $307 $313 #
-305 coedge $-1 $305 $305 $309 $304 0 $317 $-1 #
-308 coedge $-1 $308 $308 $310 $307 0 $318 $-1 #
-317 loop $-1 $298 $305 $5 #
-318 loop $-1 $299 $308 $9 #
-309 coedge $-1 $309 $309 $305 $304 1 $315 $-1 #
-310 coedge $-1 $310 $310 $308 $307 1 $316 $-1 #
-315 loop $-1 $316 $309 $301 #
-316 loop $-1 $-1 $310 $301 #
-319 cone-surface $-1 2.377000 0.280000 0.000000 0 0 -1 0.006000 0 0 1 0 1 0 #
-320 face $321 $301 $334 $2 $-1 $319 reversed single #
-321 feature-ospam-attrib $-1 $-1 $-1 $320 1 #
-325 ellipse-curve $-1 2.377000 0.280000 0.000000 0 0  1 0.006000 0 0 1 #
-322 ellipse-curve $-1 2.377000 0.280000 0.062500 0 0 -1 0.006000 0 0 1 #
-326 edge $-1 $333 $333 $329 $325 0 #
-323 edge $-1 $331 $331 $328 $322 0 #
-330 point $-1 2.383000 0.280000 0.062500 #
-332 point $-1 2.383000 0.280000 0.000000 #
-331 vertex $-1 $323 $330 #
-333 vertex $-1 $326 $332 #
-324 coedge $-1 $324 $324 $328 $323 0 $336 $-1 #
-327 coedge $-1 $327 $327 $329 $326 0 $337 $-1 #
-336 loop $-1 $317 $324 $5 #
-337 loop $-1 $318 $327 $9 #
-328 coedge $-1 $328 $328 $324 $323 1 $334 $-1 #
-329 coedge $-1 $329 $329 $327 $326 1 $335 $-1 #
-334 loop $-1 $335 $328 $320 #
-335 loop $-1 $-1 $329 $320 #
-338 cone-surface $-1 2.265000 0.050000 0.000000 0 0 -1 0.005906 0 0 1 0 1 0 #
-339 face $340 $320 $353 $2 $-1 $338 reversed single #
-340 feature-ospam-attrib $-1 $-1 $-1 $339 1 #
-344 ellipse-curve $-1 2.265000 0.050000 0.000000 0 0  1 0.005906 0 0 1 #
-341 ellipse-curve $-1 2.265000 0.050000 0.062500 0 0 -1 0.005906 0 0 1 #
-345 edge $-1 $352 $352 $348 $344 0 #
-342 edge $-1 $350 $350 $347 $341 0 #
-349 point $-1 2.270906 0.050000 0.062500 #
-351 point $-1 2.270906 0.050000 0.000000 #
-350 vertex $-1 $342 $349 #
-352 vertex $-1 $345 $351 #
-343 coedge $-1 $343 $343 $347 $342 0 $355 $-1 #
-346 coedge $-1 $346 $346 $348 $345 0 $356 $-1 #
-355 loop $-1 $336 $343 $5 #
-356 loop $-1 $337 $346 $9 #
-347 coedge $-1 $347 $347 $343 $342 1 $353 $-1 #
-348 coedge $-1 $348 $348 $346 $345 1 $354 $-1 #
-353 loop $-1 $354 $347 $339 #
-354 loop $-1 $-1 $348 $339 #
-357 cone-surface $-1 1.175000 0.420000 0.000000 0 0 -1 0.005906 0 0 1 0 1 0 #
-358 face $359 $339 $372 $2 $-1 $357 reversed single #
-359 feature-ospam-attrib $-1 $-1 $-1 $358 1 #
-363 ellipse-curve $-1 1.175000 0.420000 0.000000 0 0  1 0.005906 0 0 1 #
-360 ellipse-curve $-1 1.175000 0.420000 0.062500 0 0 -1 0.005906 0 0 1 #
-364 edge $-1 $371 $371 $367 $363 0 #
-361 edge $-1 $369 $369 $366 $360 0 #
-368 point $-1 1.180906 0.420000 0.062500 #
-370 point $-1 1.180906 0.420000 0.000000 #
-369 vertex $-1 $361 $368 #
-371 vertex $-1 $364 $370 #
-362 coedge $-1 $362 $362 $366 $361 0 $374 $-1 #
-365 coedge $-1 $365 $365 $367 $364 0 $375 $-1 #
-374 loop $-1 $355 $362 $5 #
-375 loop $-1 $356 $365 $9 #
-366 coedge $-1 $366 $366 $362 $361 1 $372 $-1 #
-367 coedge $-1 $367 $367 $365 $364 1 $373 $-1 #
-372 loop $-1 $373 $366 $358 #
-373 loop $-1 $-1 $367 $358 #
-376 cone-surface $-1 2.590000 0.291000 0.000000 0 0 -1 0.005906 0 0 1 0 1 0 #
-377 face $378 $358 $391 $2 $-1 $376 reversed single #
-378 feature-ospam-attrib $-1 $-1 $-1 $377 1 #
-382 ellipse-curve $-1 2.590000 0.291000 0.000000 0 0  1 0.005906 0 0 1 #
-379 ellipse-curve $-1 2.590000 0.291000 0.062500 0 0 -1 0.005906 0 0 1 #
-383 edge $-1 $390 $390 $386 $382 0 #
-380 edge $-1 $388 $388 $385 $379 0 #
-387 point $-1 2.595906 0.291000 0.062500 #
-389 point $-1 2.595906 0.291000 0.000000 #
-388 vertex $-1 $380 $387 #
-390 vertex $-1 $383 $389 #
-381 coedge $-1 $381 $381 $385 $380 0 $393 $-1 #
-384 coedge $-1 $384 $384 $386 $383 0 $394 $-1 #
-393 loop $-1 $374 $381 $5 #
-394 loop $-1 $375 $384 $9 #
-385 coedge $-1 $385 $385 $381 $380 1 $391 $-1 #
-386 coedge $-1 $386 $386 $384 $383 1 $392 $-1 #
-391 loop $-1 $392 $385 $377 #
-392 loop $-1 $-1 $386 $377 #
-395 cone-surface $-1 2.717000 0.302000 0.000000 0 0 -1 0.005906 0 0 1 0 1 0 #
-396 face $397 $377 $410 $2 $-1 $395 reversed single #
-397 feature-ospam-attrib $-1 $-1 $-1 $396 1 #
-401 ellipse-curve $-1 2.717000 0.302000 0.000000 0 0  1 0.005906 0 0 1 #
-398 ellipse-curve $-1 2.717000 0.302000 0.062500 0 0 -1 0.005906 0 0 1 #
-402 edge $-1 $409 $409 $405 $401 0 #
-399 edge $-1 $407 $407 $404 $398 0 #
-406 point $-1 2.722906 0.302000 0.062500 #
-408 point $-1 2.722906 0.302000 0.000000 #
-407 vertex $-1 $399 $406 #
-409 vertex $-1 $402 $408 #
-400 coedge $-1 $400 $400 $404 $399 0 $412 $-1 #
-403 coedge $-1 $403 $403 $405 $402 0 $413 $-1 #
-412 loop $-1 $393 $400 $5 #
-413 loop $-1 $394 $403 $9 #
-404 coedge $-1 $404 $404 $400 $399 1 $410 $-1 #
-405 coedge $-1 $405 $405 $403 $402 1 $411 $-1 #
-410 loop $-1 $411 $404 $396 #
-411 loop $-1 $-1 $405 $396 #
-414 cone-surface $-1 0.893000 0.272000 0.000000 0 0 -1 0.005906 0 0 1 0 1 0 #
-415 face $416 $396 $429 $2 $-1 $414 reversed single #
-416 feature-ospam-attrib $-1 $-1 $-1 $415 1 #
-420 ellipse-curve $-1 0.893000 0.272000 0.000000 0 0  1 0.005906 0 0 1 #
-417 ellipse-curve $-1 0.893000 0.272000 0.062500 0 0 -1 0.005906 0 0 1 #
-421 edge $-1 $428 $428 $424 $420 0 #
-418 edge $-1 $426 $426 $423 $417 0 #
-425 point $-1 0.898906 0.272000 0.062500 #
-427 point $-1 0.898906 0.272000 0.000000 #
-426 vertex $-1 $418 $425 #
-428 vertex $-1 $421 $427 #
-419 coedge $-1 $419 $419 $423 $418 0 $431 $-1 #
-422 coedge $-1 $422 $422 $424 $421 0 $432 $-1 #
-431 loop $-1 $412 $419 $5 #
-432 loop $-1 $413 $422 $9 #
-423 coedge $-1 $423 $423 $419 $418 1 $429 $-1 #
-424 coedge $-1 $424 $424 $422 $421 1 $430 $-1 #
-429 loop $-1 $430 $423 $415 #
-430 loop $-1 $-1 $424 $415 #
-433 cone-surface $-1 2.632000 0.071000 0.000000 0 0 -1 0.005906 0 0 1 0 1 0 #
-434 face $435 $415 $448 $2 $-1 $433 reversed single #
-435 feature-ospam-attrib $-1 $-1 $-1 $434 1 #
-439 ellipse-curve $-1 2.632000 0.071000 0.000000 0 0  1 0.005906 0 0 1 #
-436 ellipse-curve $-1 2.632000 0.071000 0.062500 0 0 -1 0.005906 0 0 1 #
-440 edge $-1 $447 $447 $443 $439 0 #
-437 edge $-1 $445 $445 $442 $436 0 #
-444 point $-1 2.637906 0.071000 0.062500 #
-446 point $-1 2.637906 0.071000 0.000000 #
-445 vertex $-1 $437 $444 #
-447 vertex $-1 $440 $446 #
-438 coedge $-1 $438 $438 $442 $437 0 $450 $-1 #
-441 coedge $-1 $441 $441 $443 $440 0 $451 $-1 #
-450 loop $-1 $431 $438 $5 #
-451 loop $-1 $432 $441 $9 #
-442 coedge $-1 $442 $442 $438 $437 1 $448 $-1 #
-443 coedge $-1 $443 $443 $441 $440 1 $449 $-1 #
-448 loop $-1 $449 $442 $434 #
-449 loop $-1 $-1 $443 $434 #
-452 cone-surface $-1 0.896000 0.209000 0.000000 0 0 -1 0.005906 0 0 1 0 1 0 #
-453 face $454 $434 $467 $2 $-1 $452 reversed single #
-454 feature-ospam-attrib $-1 $-1 $-1 $453 1 #
-458 ellipse-curve $-1 0.896000 0.209000 0.000000 0 0  1 0.005906 0 0 1 #
-455 ellipse-curve $-1 0.896000 0.209000 0.062500 0 0 -1 0.005906 0 0 1 #
-459 edge $-1 $466 $466 $462 $458 0 #
-456 edge $-1 $464 $464 $461 $455 0 #
-463 point $-1 0.901906 0.209000 0.062500 #
-465 point $-1 0.901906 0.209000 0.000000 #
-464 vertex $-1 $456 $463 #
-466 vertex $-1 $459 $465 #
-457 coedge $-1 $457 $457 $461 $456 0 $469 $-1 #
-460 coedge $-1 $460 $460 $462 $459 0 $470 $-1 #
-469 loop $-1 $450 $457 $5 #
-470 loop $-1 $451 $460 $9 #
-461 coedge $-1 $461 $461 $457 $456 1 $467 $-1 #
-462 coedge $-1 $462 $462 $460 $459 1 $468 $-1 #
-467 loop $-1 $468 $461 $453 #
-468 loop $-1 $-1 $462 $453 #
-471 cone-surface $-1 2.724000 0.239000 0.000000 0 0 -1 0.005906 0 0 1 0 1 0 #
-472 face $473 $453 $486 $2 $-1 $471 reversed single #
-473 feature-ospam-attrib $-1 $-1 $-1 $472 1 #
-477 ellipse-curve $-1 2.724000 0.239000 0.000000 0 0  1 0.005906 0 0 1 #
-474 ellipse-curve $-1 2.724000 0.239000 0.062500 0 0 -1 0.005906 0 0 1 #
-478 edge $-1 $485 $485 $481 $477 0 #
-475 edge $-1 $483 $483 $480 $474 0 #
-482 point $-1 2.729906 0.239000 0.062500 #
-484 point $-1 2.729906 0.239000 0.000000 #
-483 vertex $-1 $475 $482 #
-485 vertex $-1 $478 $484 #
-476 coedge $-1 $476 $476 $480 $475 0 $488 $-1 #
-479 coedge $-1 $479 $479 $481 $478 0 $489 $-1 #
-488 loop $-1 $469 $476 $5 #
-489 loop $-1 $470 $479 $9 #
-480 coedge $-1 $480 $480 $476 $475 1 $486 $-1 #
-481 coedge $-1 $481 $481 $479 $478 1 $487 $-1 #
-486 loop $-1 $487 $480 $472 #
-487 loop $-1 $-1 $481 $472 #
-490 cone-surface $-1 1.096000 0.318000 0.000000 0 0 -1 0.005906 0 0 1 0 1 0 #
-491 face $492 $472 $505 $2 $-1 $490 reversed single #
-492 feature-ospam-attrib $-1 $-1 $-1 $491 1 #
-496 ellipse-curve $-1 1.096000 0.318000 0.000000 0 0  1 0.005906 0 0 1 #
-493 ellipse-curve $-1 1.096000 0.318000 0.062500 0 0 -1 0.005906 0 0 1 #
-497 edge $-1 $504 $504 $500 $496 0 #
-494 edge $-1 $502 $502 $499 $493 0 #
-501 point $-1 1.101906 0.318000 0.062500 #
-503 point $-1 1.101906 0.318000 0.000000 #
-502 vertex $-1 $494 $501 #
-504 vertex $-1 $497 $503 #
-495 coedge $-1 $495 $495 $499 $494 0 $507 $-1 #
-498 coedge $-1 $498 $498 $500 $497 0 $508 $-1 #
-507 loop $-1 $488 $495 $5 #
-508 loop $-1 $489 $498 $9 #
-499 coedge $-1 $499 $499 $495 $494 1 $505 $-1 #
-500 coedge $-1 $500 $500 $498 $497 1 $506 $-1 #
-505 loop $-1 $506 $499 $491 #
-506 loop $-1 $-1 $500 $491 #
-509 cone-surface $-1 1.089000 0.193000 0.000000 0 0 -1 0.005906 0 0 1 0 1 0 #
-510 face $511 $491 $524 $2 $-1 $509 reversed single #
-511 feature-ospam-attrib $-1 $-1 $-1 $510 1 #
-515 ellipse-curve $-1 1.089000 0.193000 0.000000 0 0  1 0.005906 0 0 1 #
-512 ellipse-curve $-1 1.089000 0.193000 0.062500 0 0 -1 0.005906 0 0 1 #
-516 edge $-1 $523 $523 $519 $515 0 #
-513 edge $-1 $521 $521 $518 $512 0 #
-520 point $-1 1.094906 0.193000 0.062500 #
-522 point $-1 1.094906 0.193000 0.000000 #
-521 vertex $-1 $513 $520 #
-523 vertex $-1 $516 $522 #
-514 coedge $-1 $514 $514 $518 $513 0 $526 $-1 #
-517 coedge $-1 $517 $517 $519 $516 0 $527 $-1 #
-526 loop $-1 $507 $514 $5 #
-527 loop $-1 $508 $517 $9 #
-518 coedge $-1 $518 $518 $514 $513 1 $524 $-1 #
-519 coedge $-1 $519 $519 $517 $516 1 $525 $-1 #
-524 loop $-1 $525 $518 $510 #
-525 loop $-1 $-1 $519 $510 #
-528 cone-surface $-1 1.271000 0.478000 0.000000 0 0 -1 0.005906 0 0 1 0 1 0 #
-529 face $530 $510 $543 $2 $-1 $528 reversed single #
-530 feature-ospam-attrib $-1 $-1 $-1 $529 1 #
-534 ellipse-curve $-1 1.271000 0.478000 0.000000 0 0  1 0.005906 0 0 1 #
-531 ellipse-curve $-1 1.271000 0.478000 0.062500 0 0 -1 0.005906 0 0 1 #
-535 edge $-1 $542 $542 $538 $534 0 #
-532 edge $-1 $540 $540 $537 $531 0 #
-539 point $-1 1.276906 0.478000 0.062500 #
-541 point $-1 1.276906 0.478000 0.000000 #
-540 vertex $-1 $532 $539 #
-542 vertex $-1 $535 $541 #
-533 coedge $-1 $533 $533 $537 $532 0 $545 $-1 #
-536 coedge $-1 $536 $536 $538 $535 0 $546 $-1 #
-545 loop $-1 $526 $533 $5 #
-546 loop $-1 $527 $536 $9 #
-537 coedge $-1 $537 $537 $533 $532 1 $543 $-1 #
-538 coedge $-1 $538 $538 $536 $535 1 $544 $-1 #
-543 loop $-1 $544 $537 $529 #
-544 loop $-1 $-1 $538 $529 #
-547 cone-surface $-1 1.508000 0.362000 0.000000 0 0 -1 0.005906 0 0 1 0 1 0 #
-548 face $549 $529 $562 $2 $-1 $547 reversed single #
-549 feature-ospam-attrib $-1 $-1 $-1 $548 1 #
-553 ellipse-curve $-1 1.508000 0.362000 0.000000 0 0  1 0.005906 0 0 1 #
-550 ellipse-curve $-1 1.508000 0.362000 0.062500 0 0 -1 0.005906 0 0 1 #
-554 edge $-1 $561 $561 $557 $553 0 #
-551 edge $-1 $559 $559 $556 $550 0 #
-558 point $-1 1.513906 0.362000 0.062500 #
-560 point $-1 1.513906 0.362000 0.000000 #
-559 vertex $-1 $551 $558 #
-561 vertex $-1 $554 $560 #
-552 coedge $-1 $552 $552 $556 $551 0 $564 $-1 #
-555 coedge $-1 $555 $555 $557 $554 0 $565 $-1 #
-564 loop $-1 $545 $552 $5 #
-565 loop $-1 $546 $555 $9 #
-556 coedge $-1 $556 $556 $552 $551 1 $562 $-1 #
-557 coedge $-1 $557 $557 $555 $554 1 $563 $-1 #
-562 loop $-1 $563 $556 $548 #
-563 loop $-1 $-1 $557 $548 #
-566 cone-surface $-1 1.558000 0.362000 0.000000 0 0 -1 0.005906 0 0 1 0 1 0 #
-567 face $568 $548 $581 $2 $-1 $566 reversed single #
-568 feature-ospam-attrib $-1 $-1 $-1 $567 1 #
-572 ellipse-curve $-1 1.558000 0.362000 0.000000 0 0  1 0.005906 0 0 1 #
-569 ellipse-curve $-1 1.558000 0.362000 0.062500 0 0 -1 0.005906 0 0 1 #
-573 edge $-1 $580 $580 $576 $572 0 #
-570 edge $-1 $578 $578 $575 $569 0 #
-577 point $-1 1.563906 0.362000 0.062500 #
-579 point $-1 1.563906 0.362000 0.000000 #
-578 vertex $-1 $570 $577 #
-580 vertex $-1 $573 $579 #
-571 coedge $-1 $571 $571 $575 $570 0 $583 $-1 #
-574 coedge $-1 $574 $574 $576 $573 0 $584 $-1 #
-583 loop $-1 $564 $571 $5 #
-584 loop $-1 $565 $574 $9 #
-575 coedge $-1 $575 $575 $571 $570 1 $581 $-1 #
-576 coedge $-1 $576 $576 $574 $573 1 $582 $-1 #
-581 loop $-1 $582 $575 $567 #
-582 loop $-1 $-1 $576 $567 #
-585 cone-surface $-1 1.225000 0.451000 0.000000 0 0 -1 0.005906 0 0 1 0 1 0 #
-586 face $587 $567 $600 $2 $-1 $585 reversed single #
-587 feature-ospam-attrib $-1 $-1 $-1 $586 1 #
-591 ellipse-curve $-1 1.225000 0.451000 0.000000 0 0  1 0.005906 0 0 1 #
-588 ellipse-curve $-1 1.225000 0.451000 0.062500 0 0 -1 0.005906 0 0 1 #
-592 edge $-1 $599 $599 $595 $591 0 #
-589 edge $-1 $597 $597 $594 $588 0 #
-596 point $-1 1.230906 0.451000 0.062500 #
-598 point $-1 1.230906 0.451000 0.000000 #
-597 vertex $-1 $589 $596 #
-599 vertex $-1 $592 $598 #
-590 coedge $-1 $590 $590 $594 $589 0 $602 $-1 #
-593 coedge $-1 $593 $593 $595 $592 0 $603 $-1 #
-602 loop $-1 $583 $590 $5 #
-603 loop $-1 $584 $593 $9 #
-594 coedge $-1 $594 $594 $590 $589 1 $600 $-1 #
-595 coedge $-1 $595 $595 $593 $592 1 $601 $-1 #
-600 loop $-1 $601 $594 $586 #
-601 loop $-1 $-1 $595 $586 #
-604 cone-surface $-1 1.476000 0.540000 0.000000 0 0 -1 0.005906 0 0 1 0 1 0 #
-605 face $606 $586 $619 $2 $-1 $604 reversed single #
-606 feature-ospam-attrib $-1 $-1 $-1 $605 1 #
-610 ellipse-curve $-1 1.476000 0.540000 0.000000 0 0  1 0.005906 0 0 1 #
-607 ellipse-curve $-1 1.476000 0.540000 0.062500 0 0 -1 0.005906 0 0 1 #
-611 edge $-1 $618 $618 $614 $610 0 #
-608 edge $-1 $616 $616 $613 $607 0 #
-615 point $-1 1.481906 0.540000 0.062500 #
-617 point $-1 1.481906 0.540000 0.000000 #
-616 vertex $-1 $608 $615 #
-618 vertex $-1 $611 $617 #
-609 coedge $-1 $609 $609 $613 $608 0 $621 $-1 #
-612 coedge $-1 $612 $612 $614 $611 0 $622 $-1 #
-621 loop $-1 $602 $609 $5 #
-622 loop $-1 $603 $612 $9 #
-613 coedge $-1 $613 $613 $609 $608 1 $619 $-1 #
-614 coedge $-1 $614 $614 $612 $611 1 $620 $-1 #
-619 loop $-1 $620 $613 $605 #
-620 loop $-1 $-1 $614 $605 #
-623 cone-surface $-1 2.308000 0.174000 0.000000 0 0 -1 0.005906 0 0 1 0 1 0 #
-624 face $625 $605 $638 $2 $-1 $623 reversed single #
-625 feature-ospam-attrib $-1 $-1 $-1 $624 1 #
-629 ellipse-curve $-1 2.308000 0.174000 0.000000 0 0  1 0.005906 0 0 1 #
-626 ellipse-curve $-1 2.308000 0.174000 0.062500 0 0 -1 0.005906 0 0 1 #
-630 edge $-1 $637 $637 $633 $629 0 #
-627 edge $-1 $635 $635 $632 $626 0 #
-634 point $-1 2.313906 0.174000 0.062500 #
-636 point $-1 2.313906 0.174000 0.000000 #
-635 vertex $-1 $627 $634 #
-637 vertex $-1 $630 $636 #
-628 coedge $-1 $628 $628 $632 $627 0 $640 $-1 #
-631 coedge $-1 $631 $631 $633 $630 0 $641 $-1 #
-640 loop $-1 $621 $628 $5 #
-641 loop $-1 $622 $631 $9 #
-632 coedge $-1 $632 $632 $628 $627 1 $638 $-1 #
-633 coedge $-1 $633 $633 $631 $630 1 $639 $-1 #
-638 loop $-1 $639 $632 $624 #
-639 loop $-1 $-1 $633 $624 #
-642 cone-surface $-1 1.890000 0.376000 0.000000 0 0 -1 0.005906 0 0 1 0 1 0 #
-643 face $644 $624 $657 $2 $-1 $642 reversed single #
-644 feature-ospam-attrib $-1 $-1 $-1 $643 1 #
-648 ellipse-curve $-1 1.890000 0.376000 0.000000 0 0  1 0.005906 0 0 1 #
-645 ellipse-curve $-1 1.890000 0.376000 0.062500 0 0 -1 0.005906 0 0 1 #
-649 edge $-1 $656 $656 $652 $648 0 #
-646 edge $-1 $654 $654 $651 $645 0 #
-653 point $-1 1.895906 0.376000 0.062500 #
-655 point $-1 1.895906 0.376000 0.000000 #
-654 vertex $-1 $646 $653 #
-656 vertex $-1 $649 $655 #
-647 coedge $-1 $647 $647 $651 $646 0 $659 $-1 #
-650 coedge $-1 $650 $650 $652 $649 0 $660 $-1 #
-659 loop $-1 $640 $647 $5 #
-660 loop $-1 $641 $650 $9 #
-651 coedge $-1 $651 $651 $647 $646 1 $657 $-1 #
-652 coedge $-1 $652 $652 $650 $649 1 $658 $-1 #
-657 loop $-1 $658 $651 $643 #
-658 loop $-1 $-1 $652 $643 #
-661 cone-surface $-1 2.374000 0.480000 0.000000 0 0 -1 0.005906 0 0 1 0 1 0 #
-662 face $663 $643 $676 $2 $-1 $661 reversed single #
-663 feature-ospam-attrib $-1 $-1 $-1 $662 1 #
-667 ellipse-curve $-1 2.374000 0.480000 0.000000 0 0  1 0.005906 0 0 1 #
-664 ellipse-curve $-1 2.374000 0.480000 0.062500 0 0 -1 0.005906 0 0 1 #
-668 edge $-1 $675 $675 $671 $667 0 #
-665 edge $-1 $673 $673 $670 $664 0 #
-672 point $-1 2.379906 0.480000 0.062500 #
-674 point $-1 2.379906 0.480000 0.000000 #
-673 vertex $-1 $665 $672 #
-675 vertex $-1 $668 $674 #
-666 coedge $-1 $666 $666 $670 $665 0 $678 $-1 #
-669 coedge $-1 $669 $669 $671 $668 0 $679 $-1 #
-678 loop $-1 $659 $666 $5 #
-679 loop $-1 $660 $669 $9 #
-670 coedge $-1 $670 $670 $666 $665 1 $676 $-1 #
-671 coedge $-1 $671 $671 $669 $668 1 $677 $-1 #
-676 loop $-1 $677 $670 $662 #
-677 loop $-1 $-1 $671 $662 #
-680 cone-surface $-1 2.084000 0.362000 0.000000 0 0 -1 0.005906 0 0 1 0 1 0 #
-681 face $682 $662 $695 $2 $-1 $680 reversed single #
-682 feature-ospam-attrib $-1 $-1 $-1 $681 1 #
-686 ellipse-curve $-1 2.084000 0.362000 0.000000 0 0  1 0.005906 0 0 1 #
-683 ellipse-curve $-1 2.084000 0.362000 0.062500 0 0 -1 0.005906 0 0 1 #
-687 edge $-1 $694 $694 $690 $686 0 #
-684 edge $-1 $692 $692 $689 $683 0 #
-691 point $-1 2.089906 0.362000 0.062500 #
-693 point $-1 2.089906 0.362000 0.000000 #
-692 vertex $-1 $684 $691 #
-694 vertex $-1 $687 $693 #
-685 coedge $-1 $685 $685 $689 $684 0 $697 $-1 #
-688 coedge $-1 $688 $688 $690 $687 0 $698 $-1 #
-697 loop $-1 $678 $685 $5 #
-698 loop $-1 $679 $688 $9 #
-689 coedge $-1 $689 $689 $685 $684 1 $695 $-1 #
-690 coedge $-1 $690 $690 $688 $687 1 $696 $-1 #
-695 loop $-1 $696 $689 $681 #
-696 loop $-1 $-1 $690 $681 #
-699 cone-surface $-1 2.138000 0.360000 0.000000 0 0 -1 0.005906 0 0 1 0 1 0 #
-700 face $701 $681 $714 $2 $-1 $699 reversed single #
-701 feature-ospam-attrib $-1 $-1 $-1 $700 1 #
-705 ellipse-curve $-1 2.138000 0.360000 0.000000 0 0  1 0.005906 0 0 1 #
-702 ellipse-curve $-1 2.138000 0.360000 0.062500 0 0 -1 0.005906 0 0 1 #
-706 edge $-1 $713 $713 $709 $705 0 #
-703 edge $-1 $711 $711 $708 $702 0 #
-710 point $-1 2.143906 0.360000 0.062500 #
-712 point $-1 2.143906 0.360000 0.000000 #
-711 vertex $-1 $703 $710 #
-713 vertex $-1 $706 $712 #
-704 coedge $-1 $704 $704 $708 $703 0 $716 $-1 #
-707 coedge $-1 $707 $707 $709 $706 0 $717 $-1 #
-716 loop $-1 $697 $704 $5 #
-717 loop $-1 $698 $707 $9 #
-708 coedge $-1 $708 $708 $704 $703 1 $714 $-1 #
-709 coedge $-1 $709 $709 $707 $706 1 $715 $-1 #
-714 loop $-1 $715 $708 $700 #
-715 loop $-1 $-1 $709 $700 #
-718 cone-surface $-1 1.260000 0.030000 0.000000 0 0 -1 0.005906 0 0 1 0 1 0 #
-719 face $720 $700 $733 $2 $-1 $718 reversed single #
-720 feature-ospam-attrib $-1 $-1 $-1 $719 1 #
-724 ellipse-curve $-1 1.260000 0.030000 0.000000 0 0  1 0.005906 0 0 1 #
-721 ellipse-curve $-1 1.260000 0.030000 0.062500 0 0 -1 0.005906 0 0 1 #
-725 edge $-1 $732 $732 $728 $724 0 #
-722 edge $-1 $730 $730 $727 $721 0 #
-729 point $-1 1.265906 0.030000 0.062500 #
-731 point $-1 1.265906 0.030000 0.000000 #
-730 vertex $-1 $722 $729 #
-732 vertex $-1 $725 $731 #
-723 coedge $-1 $723 $723 $727 $722 0 $735 $-1 #
-726 coedge $-1 $726 $726 $728 $725 0 $736 $-1 #
-735 loop $-1 $716 $723 $5 #
-736 loop $-1 $717 $726 $9 #
-727 coedge $-1 $727 $727 $723 $722 1 $733 $-1 #
-728 coedge $-1 $728 $728 $726 $725 1 $734 $-1 #
-733 loop $-1 $734 $727 $719 #
-734 loop $-1 $-1 $728 $719 #
-737 cone-surface $-1 0.985000 0.075000 0.000000 0 0 -1 0.011811 0 0 1 0 1 0 #
-738 face $739 $719 $752 $2 $-1 $737 reversed single #
-739 feature-ospam-attrib $-1 $-1 $-1 $738 1 #
-743 ellipse-curve $-1 0.985000 0.075000 0.000000 0 0  1 0.011811 0 0 1 #
-740 ellipse-curve $-1 0.985000 0.075000 0.062500 0 0 -1 0.011811 0 0 1 #
-744 edge $-1 $751 $751 $747 $743 0 #
-741 edge $-1 $749 $749 $746 $740 0 #
-748 point $-1 0.996811 0.075000 0.062500 #
-750 point $-1 0.996811 0.075000 0.000000 #
-749 vertex $-1 $741 $748 #
-751 vertex $-1 $744 $750 #
-742 coedge $-1 $742 $742 $746 $741 0 $754 $-1 #
-745 coedge $-1 $745 $745 $747 $744 0 $755 $-1 #
-754 loop $-1 $735 $742 $5 #
-755 loop $-1 $736 $745 $9 #
-746 coedge $-1 $746 $746 $742 $741 1 $752 $-1 #
-747 coedge $-1 $747 $747 $745 $744 1 $753 $-1 #
-752 loop $-1 $753 $746 $738 #
-753 loop $-1 $-1 $747 $738 #
-756 cone-surface $-1 1.180000 0.060000 0.000000 0 0 -1 0.011811 0 0 1 0 1 0 #
-757 face $758 $738 $771 $2 $-1 $756 reversed single #
-758 feature-ospam-attrib $-1 $-1 $-1 $757 1 #
-762 ellipse-curve $-1 1.180000 0.060000 0.000000 0 0  1 0.011811 0 0 1 #
-759 ellipse-curve $-1 1.180000 0.060000 0.062500 0 0 -1 0.011811 0 0 1 #
-763 edge $-1 $770 $770 $766 $762 0 #
-760 edge $-1 $768 $768 $765 $759 0 #
-767 point $-1 1.191811 0.060000 0.062500 #
-769 point $-1 1.191811 0.060000 0.000000 #
-768 vertex $-1 $760 $767 #
-770 vertex $-1 $763 $769 #
-761 coedge $-1 $761 $761 $765 $760 0 $773 $-1 #
-764 coedge $-1 $764 $764 $766 $763 0 $774 $-1 #
-773 loop $-1 $754 $761 $5 #
-774 loop $-1 $755 $764 $9 #
-765 coedge $-1 $765 $765 $761 $760 1 $771 $-1 #
-766 coedge $-1 $766 $766 $764 $763 1 $772 $-1 #
-771 loop $-1 $772 $765 $757 #
-772 loop $-1 $-1 $766 $757 #
-775 cone-surface $-1 2.190000 0.475000 0.000000 0 0 -1 0.006000 0 0 1 0 1 0 #
-776 face $777 $757 $790 $2 $-1 $775 reversed single #
-777 feature-ospam-attrib $-1 $-1 $-1 $776 1 #
-781 ellipse-curve $-1 2.190000 0.475000 0.000000 0 0  1 0.006000 0 0 1 #
-778 ellipse-curve $-1 2.190000 0.475000 0.062500 0 0 -1 0.006000 0 0 1 #
-782 edge $-1 $789 $789 $785 $781 0 #
-779 edge $-1 $787 $787 $784 $778 0 #
-786 point $-1 2.196000 0.475000 0.062500 #
-788 point $-1 2.196000 0.475000 0.000000 #
-787 vertex $-1 $779 $786 #
-789 vertex $-1 $782 $788 #
-780 coedge $-1 $780 $780 $784 $779 0 $792 $-1 #
-783 coedge $-1 $783 $783 $785 $782 0 $793 $-1 #
-792 loop $-1 $773 $780 $5 #
-793 loop $-1 $774 $783 $9 #
-784 coedge $-1 $784 $784 $780 $779 1 $790 $-1 #
-785 coedge $-1 $785 $785 $783 $782 1 $791 $-1 #
-790 loop $-1 $791 $784 $776 #
-791 loop $-1 $-1 $785 $776 #
-794 cone-surface $-1 1.284000 0.348000 0.000000 0 0 -1 0.005906 0 0 1 0 1 0 #
-795 face $796 $776 $809 $2 $-1 $794 reversed single #
-796 feature-ospam-attrib $-1 $-1 $-1 $795 1 #
-800 ellipse-curve $-1 1.284000 0.348000 0.000000 0 0  1 0.005906 0 0 1 #
-797 ellipse-curve $-1 1.284000 0.348000 0.062500 0 0 -1 0.005906 0 0 1 #
-801 edge $-1 $808 $808 $804 $800 0 #
-798 edge $-1 $806 $806 $803 $797 0 #
-805 point $-1 1.289906 0.348000 0.062500 #
-807 point $-1 1.289906 0.348000 0.000000 #
-806 vertex $-1 $798 $805 #
-808 vertex $-1 $801 $807 #
-799 coedge $-1 $799 $799 $803 $798 0 $811 $-1 #
-802 coedge $-1 $802 $802 $804 $801 0 $812 $-1 #
-811 loop $-1 $792 $799 $5 #
-812 loop $-1 $793 $802 $9 #
-803 coedge $-1 $803 $803 $799 $798 1 $809 $-1 #
-804 coedge $-1 $804 $804 $802 $801 1 $810 $-1 #
-809 loop $-1 $810 $803 $795 #
-810 loop $-1 $-1 $804 $795 #
-813 cone-surface $-1 1.284000 0.302000 0.000000 0 0 -1 0.005906 0 0 1 0 1 0 #
-814 face $815 $795 $828 $2 $-1 $813 reversed single #
-815 feature-ospam-attrib $-1 $-1 $-1 $814 1 #
-819 ellipse-curve $-1 1.284000 0.302000 0.000000 0 0  1 0.005906 0 0 1 #
-816 ellipse-curve $-1 1.284000 0.302000 0.062500 0 0 -1 0.005906 0 0 1 #
-820 edge $-1 $827 $827 $823 $819 0 #
-817 edge $-1 $825 $825 $822 $816 0 #
-824 point $-1 1.289906 0.302000 0.062500 #
-826 point $-1 1.289906 0.302000 0.000000 #
-825 vertex $-1 $817 $824 #
-827 vertex $-1 $820 $826 #
-818 coedge $-1 $818 $818 $822 $817 0 $830 $-1 #
-821 coedge $-1 $821 $821 $823 $820 0 $831 $-1 #
-830 loop $-1 $811 $818 $5 #
-831 loop $-1 $812 $821 $9 #
-822 coedge $-1 $822 $822 $818 $817 1 $828 $-1 #
-823 coedge $-1 $823 $823 $821 $820 1 $829 $-1 #
-828 loop $-1 $829 $822 $814 #
-829 loop $-1 $-1 $823 $814 #
-832 cone-surface $-1 2.226000 0.459000 0.000000 0 0 -1 0.006000 0 0 1 0 1 0 #
-833 face $834 $814 $847 $2 $-1 $832 reversed single #
-834 feature-ospam-attrib $-1 $-1 $-1 $833 1 #
-838 ellipse-curve $-1 2.226000 0.459000 0.000000 0 0  1 0.006000 0 0 1 #
-835 ellipse-curve $-1 2.226000 0.459000 0.062500 0 0 -1 0.006000 0 0 1 #
-839 edge $-1 $846 $846 $842 $838 0 #
-836 edge $-1 $844 $844 $841 $835 0 #
-843 point $-1 2.232000 0.459000 0.062500 #
-845 point $-1 2.232000 0.459000 0.000000 #
-844 vertex $-1 $836 $843 #
-846 vertex $-1 $839 $845 #
-837 coedge $-1 $837 $837 $841 $836 0 $849 $-1 #
-840 coedge $-1 $840 $840 $842 $839 0 $850 $-1 #
-849 loop $-1 $830 $837 $5 #
-850 loop $-1 $831 $840 $9 #
-841 coedge $-1 $841 $841 $837 $836 1 $847 $-1 #
-842 coedge $-1 $842 $842 $840 $839 1 $848 $-1 #
-847 loop $-1 $848 $841 $833 #
-848 loop $-1 $-1 $842 $833 #
-851 cone-surface $-1 1.725000 0.157000 0.000000 0 0 -1 0.006000 0 0 1 0 1 0 #
-852 face $853 $833 $866 $2 $-1 $851 reversed single #
-853 feature-ospam-attrib $-1 $-1 $-1 $852 1 #
-857 ellipse-curve $-1 1.725000 0.157000 0.000000 0 0  1 0.006000 0 0 1 #
-854 ellipse-curve $-1 1.725000 0.157000 0.062500 0 0 -1 0.006000 0 0 1 #
-858 edge $-1 $865 $865 $861 $857 0 #
-855 edge $-1 $863 $863 $860 $854 0 #
-862 point $-1 1.731000 0.157000 0.062500 #
-864 point $-1 1.731000 0.157000 0.000000 #
-863 vertex $-1 $855 $862 #
-865 vertex $-1 $858 $864 #
-856 coedge $-1 $856 $856 $860 $855 0 $868 $-1 #
-859 coedge $-1 $859 $859 $861 $858 0 $869 $-1 #
-868 loop $-1 $849 $856 $5 #
-869 loop $-1 $850 $859 $9 #
-860 coedge $-1 $860 $860 $856 $855 1 $866 $-1 #
-861 coedge $-1 $861 $861 $859 $858 1 $867 $-1 #
-866 loop $-1 $867 $860 $852 #
-867 loop $-1 $-1 $861 $852 #
-870 cone-surface $-1 1.915000 0.140000 0.000000 0 0 -1 0.006000 0 0 1 0 1 0 #
-871 face $872 $852 $885 $2 $-1 $870 reversed single #
-872 feature-ospam-attrib $-1 $-1 $-1 $871 1 #
-876 ellipse-curve $-1 1.915000 0.140000 0.000000 0 0  1 0.006000 0 0 1 #
-873 ellipse-curve $-1 1.915000 0.140000 0.062500 0 0 -1 0.006000 0 0 1 #
-877 edge $-1 $884 $884 $880 $876 0 #
-874 edge $-1 $882 $882 $879 $873 0 #
-881 point $-1 1.921000 0.140000 0.062500 #
-883 point $-1 1.921000 0.140000 0.000000 #
-882 vertex $-1 $874 $881 #
-884 vertex $-1 $877 $883 #
-875 coedge $-1 $875 $875 $879 $874 0 $887 $-1 #
-878 coedge $-1 $878 $878 $880 $877 0 $888 $-1 #
-887 loop $-1 $868 $875 $5 #
-888 loop $-1 $869 $878 $9 #
-879 coedge $-1 $879 $879 $875 $874 1 $885 $-1 #
-880 coedge $-1 $880 $880 $878 $877 1 $886 $-1 #
-885 loop $-1 $886 $879 $871 #
-886 loop $-1 $-1 $880 $871 #
-889 cone-surface $-1 2.006000 0.097000 0.000000 0 0 -1 0.006000 0 0 1 0 1 0 #
-890 face $891 $871 $904 $2 $-1 $889 reversed single #
-891 feature-ospam-attrib $-1 $-1 $-1 $890 1 #
-895 ellipse-curve $-1 2.006000 0.097000 0.000000 0 0  1 0.006000 0 0 1 #
-892 ellipse-curve $-1 2.006000 0.097000 0.062500 0 0 -1 0.006000 0 0 1 #
-896 edge $-1 $903 $903 $899 $895 0 #
-893 edge $-1 $901 $901 $898 $892 0 #
-900 point $-1 2.012000 0.097000 0.062500 #
-902 point $-1 2.012000 0.097000 0.000000 #
-901 vertex $-1 $893 $900 #
-903 vertex $-1 $896 $902 #
-894 coedge $-1 $894 $894 $898 $893 0 $906 $-1 #
-897 coedge $-1 $897 $897 $899 $896 0 $907 $-1 #
-906 loop $-1 $887 $894 $5 #
-907 loop $-1 $888 $897 $9 #
-898 coedge $-1 $898 $898 $894 $893 1 $904 $-1 #
-899 coedge $-1 $899 $899 $897 $896 1 $905 $-1 #
-904 loop $-1 $905 $898 $890 #
-905 loop $-1 $-1 $899 $890 #
-908 cone-surface $-1 1.435000 0.205000 0.000000 0 0 -1 0.006000 0 0 1 0 1 0 #
-909 face $910 $890 $923 $2 $-1 $908 reversed single #
-910 feature-ospam-attrib $-1 $-1 $-1 $909 1 #
-914 ellipse-curve $-1 1.435000 0.205000 0.000000 0 0  1 0.006000 0 0 1 #
-911 ellipse-curve $-1 1.435000 0.205000 0.062500 0 0 -1 0.006000 0 0 1 #
-915 edge $-1 $922 $922 $918 $914 0 #
-912 edge $-1 $920 $920 $917 $911 0 #
-919 point $-1 1.441000 0.205000 0.062500 #
-921 point $-1 1.441000 0.205000 0.000000 #
-920 vertex $-1 $912 $919 #
-922 vertex $-1 $915 $921 #
-913 coedge $-1 $913 $913 $917 $912 0 $925 $-1 #
-916 coedge $-1 $916 $916 $918 $915 0 $926 $-1 #
-925 loop $-1 $906 $913 $5 #
-926 loop $-1 $907 $916 $9 #
-917 coedge $-1 $917 $917 $913 $912 1 $923 $-1 #
-918 coedge $-1 $918 $918 $916 $915 1 $924 $-1 #
-923 loop $-1 $924 $917 $909 #
-924 loop $-1 $-1 $918 $909 #
-927 cone-surface $-1 1.418000 0.536000 0.000000 0 0 -1 0.005906 0 0 1 0 1 0 #
-928 face $929 $909 $942 $2 $-1 $927 reversed single #
-929 feature-ospam-attrib $-1 $-1 $-1 $928 1 #
-933 ellipse-curve $-1 1.418000 0.536000 0.000000 0 0  1 0.005906 0 0 1 #
-930 ellipse-curve $-1 1.418000 0.536000 0.062500 0 0 -1 0.005906 0 0 1 #
-934 edge $-1 $941 $941 $937 $933 0 #
-931 edge $-1 $939 $939 $936 $930 0 #
-938 point $-1 1.423906 0.536000 0.062500 #
-940 point $-1 1.423906 0.536000 0.000000 #
-939 vertex $-1 $931 $938 #
-941 vertex $-1 $934 $940 #
-932 coedge $-1 $932 $932 $936 $931 0 $944 $-1 #
-935 coedge $-1 $935 $935 $937 $934 0 $945 $-1 #
-944 loop $-1 $925 $932 $5 #
-945 loop $-1 $926 $935 $9 #
-936 coedge $-1 $936 $936 $932 $931 1 $942 $-1 #
-937 coedge $-1 $937 $937 $935 $934 1 $943 $-1 #
-942 loop $-1 $943 $936 $928 #
-943 loop $-1 $-1 $937 $928 #
-946 cone-surface $-1 1.486000 0.502000 0.000000 0 0 -1 0.005906 0 0 1 0 1 0 #
-947 face $948 $928 $961 $2 $-1 $946 reversed single #
-948 feature-ospam-attrib $-1 $-1 $-1 $947 1 #
-952 ellipse-curve $-1 1.486000 0.502000 0.000000 0 0  1 0.005906 0 0 1 #
-949 ellipse-curve $-1 1.486000 0.502000 0.062500 0 0 -1 0.005906 0 0 1 #
-953 edge $-1 $960 $960 $956 $952 0 #
-950 edge $-1 $958 $958 $955 $949 0 #
-957 point $-1 1.491906 0.502000 0.062500 #
-959 point $-1 1.491906 0.502000 0.000000 #
-958 vertex $-1 $950 $957 #
-960 vertex $-1 $953 $959 #
-951 coedge $-1 $951 $951 $955 $950 0 $963 $-1 #
-954 coedge $-1 $954 $954 $956 $953 0 $964 $-1 #
-963 loop $-1 $944 $951 $5 #
-964 loop $-1 $945 $954 $9 #
-955 coedge $-1 $955 $955 $951 $950 1 $961 $-1 #
-956 coedge $-1 $956 $956 $954 $953 1 $962 $-1 #
-961 loop $-1 $962 $955 $947 #
-962 loop $-1 $-1 $956 $947 #
-965 cone-surface $-1 2.190000 0.315000 0.000000 0 0 -1 0.006000 0 0 1 0 1 0 #
-966 face $967 $947 $980 $2 $-1 $965 reversed single #
-967 feature-ospam-attrib $-1 $-1 $-1 $966 1 #
-971 ellipse-curve $-1 2.190000 0.315000 0.000000 0 0  1 0.006000 0 0 1 #
-968 ellipse-curve $-1 2.190000 0.315000 0.062500 0 0 -1 0.006000 0 0 1 #
-972 edge $-1 $979 $979 $975 $971 0 #
-969 edge $-1 $977 $977 $974 $968 0 #
-976 point $-1 2.196000 0.315000 0.062500 #
-978 point $-1 2.196000 0.315000 0.000000 #
-977 vertex $-1 $969 $976 #
-979 vertex $-1 $972 $978 #
-970 coedge $-1 $970 $970 $974 $969 0 $982 $-1 #
-973 coedge $-1 $973 $973 $975 $972 0 $983 $-1 #
-982 loop $-1 $963 $970 $5 #
-983 loop $-1 $964 $973 $9 #
-974 coedge $-1 $974 $974 $970 $969 1 $980 $-1 #
-975 coedge $-1 $975 $975 $973 $972 1 $981 $-1 #
-980 loop $-1 $981 $974 $966 #
-981 loop $-1 $-1 $975 $966 #
-984 cone-surface $-1 2.190000 0.280000 0.000000 0 0 -1 0.006000 0 0 1 0 1 0 #
-985 face $986 $966 $999 $2 $-1 $984 reversed single #
-986 feature-ospam-attrib $-1 $-1 $-1 $985 1 #
-990 ellipse-curve $-1 2.190000 0.280000 0.000000 0 0  1 0.006000 0 0 1 #
-987 ellipse-curve $-1 2.190000 0.280000 0.062500 0 0 -1 0.006000 0 0 1 #
-991 edge $-1 $998 $998 $994 $990 0 #
-988 edge $-1 $996 $996 $993 $987 0 #
-995 point $-1 2.196000 0.280000 0.062500 #
-997 point $-1 2.196000 0.280000 0.000000 #
-996 vertex $-1 $988 $995 #
-998 vertex $-1 $991 $997 #
-989 coedge $-1 $989 $989 $993 $988 0 $1001 $-1 #
-992 coedge $-1 $992 $992 $994 $991 0 $1002 $-1 #
-1001 loop $-1 $982 $989 $5 #
-1002 loop $-1 $983 $992 $9 #
-993 coedge $-1 $993 $993 $989 $988 1 $999 $-1 #
-994 coedge $-1 $994 $994 $992 $991 1 $1000 $-1 #
-999 loop $-1 $1000 $993 $985 #
-1000 loop $-1 $-1 $994 $985 #
-1003 cone-surface $-1 1.475000 0.206000 0.000000 0 0 -1 0.006000 0 0 1 0 1 0 #
-1004 face $1005 $985 $1018 $2 $-1 $1003 reversed single #
-1005 feature-ospam-attrib $-1 $-1 $-1 $1004 1 #
-1009 ellipse-curve $-1 1.475000 0.206000 0.000000 0 0  1 0.006000 0 0 1 #
-1006 ellipse-curve $-1 1.475000 0.206000 0.062500 0 0 -1 0.006000 0 0 1 #
-1010 edge $-1 $1017 $1017 $1013 $1009 0 #
-1007 edge $-1 $1015 $1015 $1012 $1006 0 #
-1014 point $-1 1.481000 0.206000 0.062500 #
-1016 point $-1 1.481000 0.206000 0.000000 #
-1015 vertex $-1 $1007 $1014 #
-1017 vertex $-1 $1010 $1016 #
-1008 coedge $-1 $1008 $1008 $1012 $1007 0 $1020 $-1 #
-1011 coedge $-1 $1011 $1011 $1013 $1010 0 $1021 $-1 #
-1020 loop $-1 $1001 $1008 $5 #
-1021 loop $-1 $1002 $1011 $9 #
-1012 coedge $-1 $1012 $1012 $1008 $1007 1 $1018 $-1 #
-1013 coedge $-1 $1013 $1013 $1011 $1010 1 $1019 $-1 #
-1018 loop $-1 $1019 $1012 $1004 #
-1019 loop $-1 $-1 $1013 $1004 #
-1022 cone-surface $-1 2.535000 0.255000 0.000000 0 0 -1 0.006000 0 0 1 0 1 0 #
-1023 face $1024 $1004 $1037 $2 $-1 $1022 reversed single #
-1024 feature-ospam-attrib $-1 $-1 $-1 $1023 1 #
-1028 ellipse-curve $-1 2.535000 0.255000 0.000000 0 0  1 0.006000 0 0 1 #
-1025 ellipse-curve $-1 2.535000 0.255000 0.062500 0 0 -1 0.006000 0 0 1 #
-1029 edge $-1 $1036 $1036 $1032 $1028 0 #
-1026 edge $-1 $1034 $1034 $1031 $1025 0 #
-1033 point $-1 2.541000 0.255000 0.062500 #
-1035 point $-1 2.541000 0.255000 0.000000 #
-1034 vertex $-1 $1026 $1033 #
-1036 vertex $-1 $1029 $1035 #
-1027 coedge $-1 $1027 $1027 $1031 $1026 0 $1039 $-1 #
-1030 coedge $-1 $1030 $1030 $1032 $1029 0 $1040 $-1 #
-1039 loop $-1 $1020 $1027 $5 #
-1040 loop $-1 $1021 $1030 $9 #
-1031 coedge $-1 $1031 $1031 $1027 $1026 1 $1037 $-1 #
-1032 coedge $-1 $1032 $1032 $1030 $1029 1 $1038 $-1 #
-1037 loop $-1 $1038 $1031 $1023 #
-1038 loop $-1 $-1 $1032 $1023 #
-1041 cone-surface $-1 1.406000 0.092000 0.000000 0 0 -1 0.005906 0 0 1 0 1 0 #
-1042 face $1043 $1023 $1056 $2 $-1 $1041 reversed single #
-1043 feature-ospam-attrib $-1 $-1 $-1 $1042 1 #
-1047 ellipse-curve $-1 1.406000 0.092000 0.000000 0 0  1 0.005906 0 0 1 #
-1044 ellipse-curve $-1 1.406000 0.092000 0.062500 0 0 -1 0.005906 0 0 1 #
-1048 edge $-1 $1055 $1055 $1051 $1047 0 #
-1045 edge $-1 $1053 $1053 $1050 $1044 0 #
-1052 point $-1 1.411906 0.092000 0.062500 #
-1054 point $-1 1.411906 0.092000 0.000000 #
-1053 vertex $-1 $1045 $1052 #
-1055 vertex $-1 $1048 $1054 #
-1046 coedge $-1 $1046 $1046 $1050 $1045 0 $1058 $-1 #
-1049 coedge $-1 $1049 $1049 $1051 $1048 0 $1059 $-1 #
-1058 loop $-1 $1039 $1046 $5 #
-1059 loop $-1 $1040 $1049 $9 #
-1050 coedge $-1 $1050 $1050 $1046 $1045 1 $1056 $-1 #
-1051 coedge $-1 $1051 $1051 $1049 $1048 1 $1057 $-1 #
-1056 loop $-1 $1057 $1050 $1042 #
-1057 loop $-1 $-1 $1051 $1042 #
-1060 cone-surface $-1 2.278000 0.392000 0.000000 0 0 -1 0.005906 0 0 1 0 1 0 #
-1061 face $1062 $1042 $1075 $2 $-1 $1060 reversed single #
-1062 feature-ospam-attrib $-1 $-1 $-1 $1061 1 #
-1066 ellipse-curve $-1 2.278000 0.392000 0.000000 0 0  1 0.005906 0 0 1 #
-1063 ellipse-curve $-1 2.278000 0.392000 0.062500 0 0 -1 0.005906 0 0 1 #
-1067 edge $-1 $1074 $1074 $1070 $1066 0 #
-1064 edge $-1 $1072 $1072 $1069 $1063 0 #
-1071 point $-1 2.283906 0.392000 0.062500 #
-1073 point $-1 2.283906 0.392000 0.000000 #
-1072 vertex $-1 $1064 $1071 #
-1074 vertex $-1 $1067 $1073 #
-1065 coedge $-1 $1065 $1065 $1069 $1064 0 $1077 $-1 #
-1068 coedge $-1 $1068 $1068 $1070 $1067 0 $1078 $-1 #
-1077 loop $-1 $1058 $1065 $5 #
-1078 loop $-1 $1059 $1068 $9 #
-1069 coedge $-1 $1069 $1069 $1065 $1064 1 $1075 $-1 #
-1070 coedge $-1 $1070 $1070 $1068 $1067 1 $1076 $-1 #
-1075 loop $-1 $1076 $1069 $1061 #
-1076 loop $-1 $-1 $1070 $1061 #
-1079 cone-surface $-1 2.090000 0.238000 0.000000 0 0 -1 0.005906 0 0 1 0 1 0 #
-1080 face $1081 $1061 $1094 $2 $-1 $1079 reversed single #
-1081 feature-ospam-attrib $-1 $-1 $-1 $1080 1 #
-1085 ellipse-curve $-1 2.090000 0.238000 0.000000 0 0  1 0.005906 0 0 1 #
-1082 ellipse-curve $-1 2.090000 0.238000 0.062500 0 0 -1 0.005906 0 0 1 #
-1086 edge $-1 $1093 $1093 $1089 $1085 0 #
-1083 edge $-1 $1091 $1091 $1088 $1082 0 #
-1090 point $-1 2.095906 0.238000 0.062500 #
-1092 point $-1 2.095906 0.238000 0.000000 #
-1091 vertex $-1 $1083 $1090 #
-1093 vertex $-1 $1086 $1092 #
-1084 coedge $-1 $1084 $1084 $1088 $1083 0 $1096 $-1 #
-1087 coedge $-1 $1087 $1087 $1089 $1086 0 $1097 $-1 #
-1096 loop $-1 $1077 $1084 $5 #
-1097 loop $-1 $1078 $1087 $9 #
-1088 coedge $-1 $1088 $1088 $1084 $1083 1 $1094 $-1 #
-1089 coedge $-1 $1089 $1089 $1087 $1086 1 $1095 $-1 #
-1094 loop $-1 $1095 $1088 $1080 #
-1095 loop $-1 $-1 $1089 $1080 #
-1098 cone-surface $-1 1.889000 0.201000 0.000000 0 0 -1 0.005906 0 0 1 0 1 0 #
-1099 face $1100 $1080 $1113 $2 $-1 $1098 reversed single #
-1100 feature-ospam-attrib $-1 $-1 $-1 $1099 1 #
-1104 ellipse-curve $-1 1.889000 0.201000 0.000000 0 0  1 0.005906 0 0 1 #
-1101 ellipse-curve $-1 1.889000 0.201000 0.062500 0 0 -1 0.005906 0 0 1 #
-1105 edge $-1 $1112 $1112 $1108 $1104 0 #
-1102 edge $-1 $1110 $1110 $1107 $1101 0 #
-1109 point $-1 1.894906 0.201000 0.062500 #
-1111 point $-1 1.894906 0.201000 0.000000 #
-1110 vertex $-1 $1102 $1109 #
-1112 vertex $-1 $1105 $1111 #
-1103 coedge $-1 $1103 $1103 $1107 $1102 0 $1115 $-1 #
-1106 coedge $-1 $1106 $1106 $1108 $1105 0 $1116 $-1 #
-1115 loop $-1 $1096 $1103 $5 #
-1116 loop $-1 $1097 $1106 $9 #
-1107 coedge $-1 $1107 $1107 $1103 $1102 1 $1113 $-1 #
-1108 coedge $-1 $1108 $1108 $1106 $1105 1 $1114 $-1 #
-1113 loop $-1 $1114 $1107 $1099 #
-1114 loop $-1 $-1 $1108 $1099 #
-1117 cone-surface $-1 2.195000 0.215000 0.000000 0 0 -1 0.005906 0 0 1 0 1 0 #
-1118 face $1119 $1099 $1132 $2 $-1 $1117 reversed single #
-1119 feature-ospam-attrib $-1 $-1 $-1 $1118 1 #
-1123 ellipse-curve $-1 2.195000 0.215000 0.000000 0 0  1 0.005906 0 0 1 #
-1120 ellipse-curve $-1 2.195000 0.215000 0.062500 0 0 -1 0.005906 0 0 1 #
-1124 edge $-1 $1131 $1131 $1127 $1123 0 #
-1121 edge $-1 $1129 $1129 $1126 $1120 0 #
-1128 point $-1 2.200906 0.215000 0.062500 #
-1130 point $-1 2.200906 0.215000 0.000000 #
-1129 vertex $-1 $1121 $1128 #
-1131 vertex $-1 $1124 $1130 #
-1122 coedge $-1 $1122 $1122 $1126 $1121 0 $1134 $-1 #
-1125 coedge $-1 $1125 $1125 $1127 $1124 0 $1135 $-1 #
-1134 loop $-1 $1115 $1122 $5 #
-1135 loop $-1 $1116 $1125 $9 #
-1126 coedge $-1 $1126 $1126 $1122 $1121 1 $1132 $-1 #
-1127 coedge $-1 $1127 $1127 $1125 $1124 1 $1133 $-1 #
-1132 loop $-1 $1133 $1126 $1118 #
-1133 loop $-1 $-1 $1127 $1118 #
-46 face $69 $1118 $64 $2 $-1 $70 reversed single #
-18 loop $-1 $1134 $28 $5 #
-26 loop $-1 $1135 $37 $9 #
-1136
